<?xml version="1.0" encoding="UTF-8"?>
<svg version="1.1" baseProfile="tiny" xmlns="http://www.w3.org/2000/svg" width="189" height="189">
<rect shape-rendering="optimizeSpeed"  x="0" y="0" width="189" height="189" fill="white" />
<rect shape-rendering="optimizeSpeed"  x="0" y="0" width="9" height="9" fill="black" />
<rect shape-rendering="optimizeSpeed"  x="9" y="0" width="9" height="9" fill="black" />
<rect shape-rendering="optimizeSpeed"  x="18" y="0" width="9" height="9" fill="black" />
<rect shape-rendering="optimizeSpeed"  x="27" y="0" width="9" height="9" fill="black" />
<rect shape-rendering="optimizeSpeed"  x="36" y="0" width="9" height="9" fill="black" />
<rect shape-rendering="optimizeSpeed"  x="45" y="0" width="9" height="9" fill="black" />
<rect shape-rendering="optimizeSpeed"  x="54" y="0" width="9" height="9" fill="black" />
<rect shape-rendering="optimizeSpeed"  x="81" y="0" width="9" height="9" fill="black" />
<rect shape-rendering="optimizeSpeed"  x="99" y="0" width="9" height="9" fill="black" />
<rect shape-rendering="optimizeSpeed"  x="108" y="0" width="9" height="9" fill="black" />
<rect shape-rendering="optimizeSpeed"  x="126" y="0" width="9" height="9" fill="black" />
<rect shape-rendering="optimizeSpeed"  x="135" y="0" width="9" height="9" fill="black" />
<rect shape-rendering="optimizeSpeed"  x="144" y="0" width="9" height="9" fill="black" />
<rect shape-rendering="optimizeSpeed"  x="153" y="0" width="9" height="9" fill="black" />
<rect shape-rendering="optimizeSpeed"  x="162" y="0" width="9" height="9" fill="black" />
<rect shape-rendering="optimizeSpeed"  x="171" y="0" width="9" height="9" fill="black" />
<rect shape-rendering="optimizeSpeed"  x="180" y="0" width="9" height="9" fill="black" />
<rect shape-rendering="optimizeSpeed"  x="0" y="9" width="9" height="9" fill="black" />
<rect shape-rendering="optimizeSpeed"  x="54" y="9" width="9" height="9" fill="black" />
<rect shape-rendering="optimizeSpeed"  x="72" y="9" width="9" height="9" fill="black" />
<rect shape-rendering="optimizeSpeed"  x="81" y="9" width="9" height="9" fill="black" />
<rect shape-rendering="optimizeSpeed"  x="99" y="9" width="9" height="9" fill="black" />
<rect shape-rendering="optimizeSpeed"  x="126" y="9" width="9" height="9" fill="black" />
<rect shape-rendering="optimizeSpeed"  x="180" y="9" width="9" height="9" fill="black" />
<rect shape-rendering="optimizeSpeed"  x="0" y="18" width="9" height="9" fill="black" />
<rect shape-rendering="optimizeSpeed"  x="18" y="18" width="9" height="9" fill="black" />
<rect shape-rendering="optimizeSpeed"  x="27" y="18" width="9" height="9" fill="black" />
<rect shape-rendering="optimizeSpeed"  x="36" y="18" width="9" height="9" fill="black" />
<rect shape-rendering="optimizeSpeed"  x="54" y="18" width="9" height="9" fill="black" />
<rect shape-rendering="optimizeSpeed"  x="72" y="18" width="9" height="9" fill="black" />
<rect shape-rendering="optimizeSpeed"  x="81" y="18" width="9" height="9" fill="black" />
<rect shape-rendering="optimizeSpeed"  x="108" y="18" width="9" height="9" fill="black" />
<rect shape-rendering="optimizeSpeed"  x="126" y="18" width="9" height="9" fill="black" />
<rect shape-rendering="optimizeSpeed"  x="144" y="18" width="9" height="9" fill="black" />
<rect shape-rendering="optimizeSpeed"  x="153" y="18" width="9" height="9" fill="black" />
<rect shape-rendering="optimizeSpeed"  x="162" y="18" width="9" height="9" fill="black" />
<rect shape-rendering="optimizeSpeed"  x="180" y="18" width="9" height="9" fill="black" />
<rect shape-rendering="optimizeSpeed"  x="0" y="27" width="9" height="9" fill="black" />
<rect shape-rendering="optimizeSpeed"  x="18" y="27" width="9" height="9" fill="black" />
<rect shape-rendering="optimizeSpeed"  x="27" y="27" width="9" height="9" fill="black" />
<rect shape-rendering="optimizeSpeed"  x="36" y="27" width="9" height="9" fill="black" />
<rect shape-rendering="optimizeSpeed"  x="54" y="27" width="9" height="9" fill="black" />
<rect shape-rendering="optimizeSpeed"  x="81" y="27" width="9" height="9" fill="black" />
<rect shape-rendering="optimizeSpeed"  x="99" y="27" width="9" height="9" fill="black" />
<rect shape-rendering="optimizeSpeed"  x="126" y="27" width="9" height="9" fill="black" />
<rect shape-rendering="optimizeSpeed"  x="144" y="27" width="9" height="9" fill="black" />
<rect shape-rendering="optimizeSpeed"  x="153" y="27" width="9" height="9" fill="black" />
<rect shape-rendering="optimizeSpeed"  x="162" y="27" width="9" height="9" fill="black" />
<rect shape-rendering="optimizeSpeed"  x="180" y="27" width="9" height="9" fill="black" />
<rect shape-rendering="optimizeSpeed"  x="0" y="36" width="9" height="9" fill="black" />
<rect shape-rendering="optimizeSpeed"  x="18" y="36" width="9" height="9" fill="black" />
<rect shape-rendering="optimizeSpeed"  x="27" y="36" width="9" height="9" fill="black" />
<rect shape-rendering="optimizeSpeed"  x="36" y="36" width="9" height="9" fill="black" />
<rect shape-rendering="optimizeSpeed"  x="54" y="36" width="9" height="9" fill="black" />
<rect shape-rendering="optimizeSpeed"  x="72" y="36" width="9" height="9" fill="black" />
<rect shape-rendering="optimizeSpeed"  x="108" y="36" width="9" height="9" fill="black" />
<rect shape-rendering="optimizeSpeed"  x="126" y="36" width="9" height="9" fill="black" />
<rect shape-rendering="optimizeSpeed"  x="144" y="36" width="9" height="9" fill="black" />
<rect shape-rendering="optimizeSpeed"  x="153" y="36" width="9" height="9" fill="black" />
<rect shape-rendering="optimizeSpeed"  x="162" y="36" width="9" height="9" fill="black" />
<rect shape-rendering="optimizeSpeed"  x="180" y="36" width="9" height="9" fill="black" />
<rect shape-rendering="optimizeSpeed"  x="0" y="45" width="9" height="9" fill="black" />
<rect shape-rendering="optimizeSpeed"  x="54" y="45" width="9" height="9" fill="black" />
<rect shape-rendering="optimizeSpeed"  x="72" y="45" width="9" height="9" fill="black" />
<rect shape-rendering="optimizeSpeed"  x="99" y="45" width="9" height="9" fill="black" />
<rect shape-rendering="optimizeSpeed"  x="108" y="45" width="9" height="9" fill="black" />
<rect shape-rendering="optimizeSpeed"  x="126" y="45" width="9" height="9" fill="black" />
<rect shape-rendering="optimizeSpeed"  x="180" y="45" width="9" height="9" fill="black" />
<rect shape-rendering="optimizeSpeed"  x="0" y="54" width="9" height="9" fill="black" />
<rect shape-rendering="optimizeSpeed"  x="9" y="54" width="9" height="9" fill="black" />
<rect shape-rendering="optimizeSpeed"  x="18" y="54" width="9" height="9" fill="black" />
<rect shape-rendering="optimizeSpeed"  x="27" y="54" width="9" height="9" fill="black" />
<rect shape-rendering="optimizeSpeed"  x="36" y="54" width="9" height="9" fill="black" />
<rect shape-rendering="optimizeSpeed"  x="45" y="54" width="9" height="9" fill="black" />
<rect shape-rendering="optimizeSpeed"  x="54" y="54" width="9" height="9" fill="black" />
<rect shape-rendering="optimizeSpeed"  x="72" y="54" width="9" height="9" fill="black" />
<rect shape-rendering="optimizeSpeed"  x="90" y="54" width="9" height="9" fill="black" />
<rect shape-rendering="optimizeSpeed"  x="108" y="54" width="9" height="9" fill="black" />
<rect shape-rendering="optimizeSpeed"  x="126" y="54" width="9" height="9" fill="black" />
<rect shape-rendering="optimizeSpeed"  x="135" y="54" width="9" height="9" fill="black" />
<rect shape-rendering="optimizeSpeed"  x="144" y="54" width="9" height="9" fill="black" />
<rect shape-rendering="optimizeSpeed"  x="153" y="54" width="9" height="9" fill="black" />
<rect shape-rendering="optimizeSpeed"  x="162" y="54" width="9" height="9" fill="black" />
<rect shape-rendering="optimizeSpeed"  x="171" y="54" width="9" height="9" fill="black" />
<rect shape-rendering="optimizeSpeed"  x="180" y="54" width="9" height="9" fill="black" />
<rect shape-rendering="optimizeSpeed"  x="72" y="63" width="9" height="9" fill="black" />
<rect shape-rendering="optimizeSpeed"  x="81" y="63" width="9" height="9" fill="black" />
<rect shape-rendering="optimizeSpeed"  x="90" y="63" width="9" height="9" fill="black" />
<rect shape-rendering="optimizeSpeed"  x="99" y="63" width="9" height="9" fill="black" />
<rect shape-rendering="optimizeSpeed"  x="108" y="63" width="9" height="9" fill="black" />
<rect shape-rendering="optimizeSpeed"  x="0" y="72" width="9" height="9" fill="black" />
<rect shape-rendering="optimizeSpeed"  x="9" y="72" width="9" height="9" fill="black" />
<rect shape-rendering="optimizeSpeed"  x="27" y="72" width="9" height="9" fill="black" />
<rect shape-rendering="optimizeSpeed"  x="54" y="72" width="9" height="9" fill="black" />
<rect shape-rendering="optimizeSpeed"  x="63" y="72" width="9" height="9" fill="black" />
<rect shape-rendering="optimizeSpeed"  x="81" y="72" width="9" height="9" fill="black" />
<rect shape-rendering="optimizeSpeed"  x="90" y="72" width="9" height="9" fill="black" />
<rect shape-rendering="optimizeSpeed"  x="126" y="72" width="9" height="9" fill="black" />
<rect shape-rendering="optimizeSpeed"  x="135" y="72" width="9" height="9" fill="black" />
<rect shape-rendering="optimizeSpeed"  x="144" y="72" width="9" height="9" fill="black" />
<rect shape-rendering="optimizeSpeed"  x="162" y="72" width="9" height="9" fill="black" />
<rect shape-rendering="optimizeSpeed"  x="171" y="72" width="9" height="9" fill="black" />
<rect shape-rendering="optimizeSpeed"  x="0" y="81" width="9" height="9" fill="black" />
<rect shape-rendering="optimizeSpeed"  x="18" y="81" width="9" height="9" fill="black" />
<rect shape-rendering="optimizeSpeed"  x="27" y="81" width="9" height="9" fill="black" />
<rect shape-rendering="optimizeSpeed"  x="36" y="81" width="9" height="9" fill="black" />
<rect shape-rendering="optimizeSpeed"  x="45" y="81" width="9" height="9" fill="black" />
<rect shape-rendering="optimizeSpeed"  x="81" y="81" width="9" height="9" fill="black" />
<rect shape-rendering="optimizeSpeed"  x="90" y="81" width="9" height="9" fill="black" />
<rect shape-rendering="optimizeSpeed"  x="126" y="81" width="9" height="9" fill="black" />
<rect shape-rendering="optimizeSpeed"  x="135" y="81" width="9" height="9" fill="black" />
<rect shape-rendering="optimizeSpeed"  x="162" y="81" width="9" height="9" fill="black" />
<rect shape-rendering="optimizeSpeed"  x="171" y="81" width="9" height="9" fill="black" />
<rect shape-rendering="optimizeSpeed"  x="180" y="81" width="9" height="9" fill="black" />
<rect shape-rendering="optimizeSpeed"  x="9" y="90" width="9" height="9" fill="black" />
<rect shape-rendering="optimizeSpeed"  x="18" y="90" width="9" height="9" fill="black" />
<rect shape-rendering="optimizeSpeed"  x="27" y="90" width="9" height="9" fill="black" />
<rect shape-rendering="optimizeSpeed"  x="36" y="90" width="9" height="9" fill="black" />
<rect shape-rendering="optimizeSpeed"  x="54" y="90" width="9" height="9" fill="black" />
<rect shape-rendering="optimizeSpeed"  x="108" y="90" width="9" height="9" fill="black" />
<rect shape-rendering="optimizeSpeed"  x="117" y="90" width="9" height="9" fill="black" />
<rect shape-rendering="optimizeSpeed"  x="153" y="90" width="9" height="9" fill="black" />
<rect shape-rendering="optimizeSpeed"  x="180" y="90" width="9" height="9" fill="black" />
<rect shape-rendering="optimizeSpeed"  x="9" y="99" width="9" height="9" fill="black" />
<rect shape-rendering="optimizeSpeed"  x="45" y="99" width="9" height="9" fill="black" />
<rect shape-rendering="optimizeSpeed"  x="63" y="99" width="9" height="9" fill="black" />
<rect shape-rendering="optimizeSpeed"  x="81" y="99" width="9" height="9" fill="black" />
<rect shape-rendering="optimizeSpeed"  x="99" y="99" width="9" height="9" fill="black" />
<rect shape-rendering="optimizeSpeed"  x="144" y="99" width="9" height="9" fill="black" />
<rect shape-rendering="optimizeSpeed"  x="153" y="99" width="9" height="9" fill="black" />
<rect shape-rendering="optimizeSpeed"  x="171" y="99" width="9" height="9" fill="black" />
<rect shape-rendering="optimizeSpeed"  x="0" y="108" width="9" height="9" fill="black" />
<rect shape-rendering="optimizeSpeed"  x="36" y="108" width="9" height="9" fill="black" />
<rect shape-rendering="optimizeSpeed"  x="45" y="108" width="9" height="9" fill="black" />
<rect shape-rendering="optimizeSpeed"  x="54" y="108" width="9" height="9" fill="black" />
<rect shape-rendering="optimizeSpeed"  x="72" y="108" width="9" height="9" fill="black" />
<rect shape-rendering="optimizeSpeed"  x="81" y="108" width="9" height="9" fill="black" />
<rect shape-rendering="optimizeSpeed"  x="108" y="108" width="9" height="9" fill="black" />
<rect shape-rendering="optimizeSpeed"  x="126" y="108" width="9" height="9" fill="black" />
<rect shape-rendering="optimizeSpeed"  x="135" y="108" width="9" height="9" fill="black" />
<rect shape-rendering="optimizeSpeed"  x="144" y="108" width="9" height="9" fill="black" />
<rect shape-rendering="optimizeSpeed"  x="153" y="108" width="9" height="9" fill="black" />
<rect shape-rendering="optimizeSpeed"  x="171" y="108" width="9" height="9" fill="black" />
<rect shape-rendering="optimizeSpeed"  x="72" y="117" width="9" height="9" fill="black" />
<rect shape-rendering="optimizeSpeed"  x="81" y="117" width="9" height="9" fill="black" />
<rect shape-rendering="optimizeSpeed"  x="90" y="117" width="9" height="9" fill="black" />
<rect shape-rendering="optimizeSpeed"  x="99" y="117" width="9" height="9" fill="black" />
<rect shape-rendering="optimizeSpeed"  x="135" y="117" width="9" height="9" fill="black" />
<rect shape-rendering="optimizeSpeed"  x="0" y="126" width="9" height="9" fill="black" />
<rect shape-rendering="optimizeSpeed"  x="9" y="126" width="9" height="9" fill="black" />
<rect shape-rendering="optimizeSpeed"  x="18" y="126" width="9" height="9" fill="black" />
<rect shape-rendering="optimizeSpeed"  x="27" y="126" width="9" height="9" fill="black" />
<rect shape-rendering="optimizeSpeed"  x="36" y="126" width="9" height="9" fill="black" />
<rect shape-rendering="optimizeSpeed"  x="45" y="126" width="9" height="9" fill="black" />
<rect shape-rendering="optimizeSpeed"  x="54" y="126" width="9" height="9" fill="black" />
<rect shape-rendering="optimizeSpeed"  x="72" y="126" width="9" height="9" fill="black" />
<rect shape-rendering="optimizeSpeed"  x="90" y="126" width="9" height="9" fill="black" />
<rect shape-rendering="optimizeSpeed"  x="117" y="126" width="9" height="9" fill="black" />
<rect shape-rendering="optimizeSpeed"  x="135" y="126" width="9" height="9" fill="black" />
<rect shape-rendering="optimizeSpeed"  x="144" y="126" width="9" height="9" fill="black" />
<rect shape-rendering="optimizeSpeed"  x="153" y="126" width="9" height="9" fill="black" />
<rect shape-rendering="optimizeSpeed"  x="162" y="126" width="9" height="9" fill="black" />
<rect shape-rendering="optimizeSpeed"  x="171" y="126" width="9" height="9" fill="black" />
<rect shape-rendering="optimizeSpeed"  x="0" y="135" width="9" height="9" fill="black" />
<rect shape-rendering="optimizeSpeed"  x="54" y="135" width="9" height="9" fill="black" />
<rect shape-rendering="optimizeSpeed"  x="99" y="135" width="9" height="9" fill="black" />
<rect shape-rendering="optimizeSpeed"  x="108" y="135" width="9" height="9" fill="black" />
<rect shape-rendering="optimizeSpeed"  x="117" y="135" width="9" height="9" fill="black" />
<rect shape-rendering="optimizeSpeed"  x="135" y="135" width="9" height="9" fill="black" />
<rect shape-rendering="optimizeSpeed"  x="144" y="135" width="9" height="9" fill="black" />
<rect shape-rendering="optimizeSpeed"  x="180" y="135" width="9" height="9" fill="black" />
<rect shape-rendering="optimizeSpeed"  x="0" y="144" width="9" height="9" fill="black" />
<rect shape-rendering="optimizeSpeed"  x="18" y="144" width="9" height="9" fill="black" />
<rect shape-rendering="optimizeSpeed"  x="27" y="144" width="9" height="9" fill="black" />
<rect shape-rendering="optimizeSpeed"  x="36" y="144" width="9" height="9" fill="black" />
<rect shape-rendering="optimizeSpeed"  x="54" y="144" width="9" height="9" fill="black" />
<rect shape-rendering="optimizeSpeed"  x="81" y="144" width="9" height="9" fill="black" />
<rect shape-rendering="optimizeSpeed"  x="90" y="144" width="9" height="9" fill="black" />
<rect shape-rendering="optimizeSpeed"  x="99" y="144" width="9" height="9" fill="black" />
<rect shape-rendering="optimizeSpeed"  x="126" y="144" width="9" height="9" fill="black" />
<rect shape-rendering="optimizeSpeed"  x="135" y="144" width="9" height="9" fill="black" />
<rect shape-rendering="optimizeSpeed"  x="144" y="144" width="9" height="9" fill="black" />
<rect shape-rendering="optimizeSpeed"  x="180" y="144" width="9" height="9" fill="black" />
<rect shape-rendering="optimizeSpeed"  x="0" y="153" width="9" height="9" fill="black" />
<rect shape-rendering="optimizeSpeed"  x="18" y="153" width="9" height="9" fill="black" />
<rect shape-rendering="optimizeSpeed"  x="27" y="153" width="9" height="9" fill="black" />
<rect shape-rendering="optimizeSpeed"  x="36" y="153" width="9" height="9" fill="black" />
<rect shape-rendering="optimizeSpeed"  x="54" y="153" width="9" height="9" fill="black" />
<rect shape-rendering="optimizeSpeed"  x="72" y="153" width="9" height="9" fill="black" />
<rect shape-rendering="optimizeSpeed"  x="99" y="153" width="9" height="9" fill="black" />
<rect shape-rendering="optimizeSpeed"  x="135" y="153" width="9" height="9" fill="black" />
<rect shape-rendering="optimizeSpeed"  x="144" y="153" width="9" height="9" fill="black" />
<rect shape-rendering="optimizeSpeed"  x="162" y="153" width="9" height="9" fill="black" />
<rect shape-rendering="optimizeSpeed"  x="171" y="153" width="9" height="9" fill="black" />
<rect shape-rendering="optimizeSpeed"  x="180" y="153" width="9" height="9" fill="black" />
<rect shape-rendering="optimizeSpeed"  x="0" y="162" width="9" height="9" fill="black" />
<rect shape-rendering="optimizeSpeed"  x="18" y="162" width="9" height="9" fill="black" />
<rect shape-rendering="optimizeSpeed"  x="27" y="162" width="9" height="9" fill="black" />
<rect shape-rendering="optimizeSpeed"  x="36" y="162" width="9" height="9" fill="black" />
<rect shape-rendering="optimizeSpeed"  x="54" y="162" width="9" height="9" fill="black" />
<rect shape-rendering="optimizeSpeed"  x="90" y="162" width="9" height="9" fill="black" />
<rect shape-rendering="optimizeSpeed"  x="108" y="162" width="9" height="9" fill="black" />
<rect shape-rendering="optimizeSpeed"  x="135" y="162" width="9" height="9" fill="black" />
<rect shape-rendering="optimizeSpeed"  x="144" y="162" width="9" height="9" fill="black" />
<rect shape-rendering="optimizeSpeed"  x="162" y="162" width="9" height="9" fill="black" />
<rect shape-rendering="optimizeSpeed"  x="180" y="162" width="9" height="9" fill="black" />
<rect shape-rendering="optimizeSpeed"  x="0" y="171" width="9" height="9" fill="black" />
<rect shape-rendering="optimizeSpeed"  x="54" y="171" width="9" height="9" fill="black" />
<rect shape-rendering="optimizeSpeed"  x="72" y="171" width="9" height="9" fill="black" />
<rect shape-rendering="optimizeSpeed"  x="81" y="171" width="9" height="9" fill="black" />
<rect shape-rendering="optimizeSpeed"  x="90" y="171" width="9" height="9" fill="black" />
<rect shape-rendering="optimizeSpeed"  x="117" y="171" width="9" height="9" fill="black" />
<rect shape-rendering="optimizeSpeed"  x="126" y="171" width="9" height="9" fill="black" />
<rect shape-rendering="optimizeSpeed"  x="144" y="171" width="9" height="9" fill="black" />
<rect shape-rendering="optimizeSpeed"  x="0" y="180" width="9" height="9" fill="black" />
<rect shape-rendering="optimizeSpeed"  x="9" y="180" width="9" height="9" fill="black" />
<rect shape-rendering="optimizeSpeed"  x="18" y="180" width="9" height="9" fill="black" />
<rect shape-rendering="optimizeSpeed"  x="27" y="180" width="9" height="9" fill="black" />
<rect shape-rendering="optimizeSpeed"  x="36" y="180" width="9" height="9" fill="black" />
<rect shape-rendering="optimizeSpeed"  x="45" y="180" width="9" height="9" fill="black" />
<rect shape-rendering="optimizeSpeed"  x="54" y="180" width="9" height="9" fill="black" />
<rect shape-rendering="optimizeSpeed"  x="72" y="180" width="9" height="9" fill="black" />
<rect shape-rendering="optimizeSpeed"  x="99" y="180" width="9" height="9" fill="black" />
<rect shape-rendering="optimizeSpeed"  x="108" y="180" width="9" height="9" fill="black" />
<rect shape-rendering="optimizeSpeed"  x="153" y="180" width="9" height="9" fill="black" />
<rect shape-rendering="optimizeSpeed"  x="171" y="180" width="9" height="9" fill="black" /></svg>